# xmcd CD database file
#
# Track frame offsets:
#	150
#	18878
#	42743
#	58553
#	74540
#	90358
#	105336
#	118641
#	130026
#
# Disc length: 2207 seconds
#
# Revision: 0
# Processed by: cddbd v1.4PL0 Copyright (c) Steve Scherf et al.
# Submitted via: CDex 1.50
#
DISCID=6f089d09
DTITLE=Julie Driscoll - Trinity
DYEAR=1970
DGENRE=Blues
TTITLE0=Tramp
TTITLE1=Road To Cairo
TTITLE2=Why
TTITLE3=Shadows Of You
TTITLE4=This Wheel's On Fire
TTITLE5=Black Cat
TTITLE6=In and You
TTITLE7=Lament for Miss Baker
TTITLE8=Season of The Witch
EXTD=YEAR: 1970
EXTT0=
EXTT1=
EXTT2=
EXTT3=
EXTT4=
EXTT5=
EXTT6=
EXTT7=
EXTT8=
PLAYORDER=
